<?xml version="1.0" encoding="UTF-8" standalone="no"?>
<!DOCTYPE svg PUBLIC "-//W3C//DTD SVG 1.1//EN" "http://www.w3.org/Graphics/SVG/1.1/DTD/svg11.dtd">
<svg width="100%" height="100%" viewBox="0 0 217 108" version="1.1" xmlns="http://www.w3.org/2000/svg" xmlns:xlink="http://www.w3.org/1999/xlink" xml:space="preserve" xmlns:serif="http://www.serif.com/" style="fill-rule:evenodd;clip-rule:evenodd;stroke-linecap:round;stroke-linejoin:round;stroke-miterlimit:1.5;">
    <g transform="matrix(1,0,0,1,-356.314,-489.491)">
        <g id="ArtBoard3" transform="matrix(0.745398,0,0,0.481565,348.908,280.252)">
            <rect x="9.937" y="434.498" width="290.628" height="222.978" style="fill:none;"/>
            <g transform="matrix(1.34156,0,0,2.07656,-460.031,-557.14)">
                <path d="M358.55,490.859L560.406,490.859" style="fill:none;stroke:black;stroke-opacity:0.11;stroke-width:1px;"/>
            </g>
            <g transform="matrix(1.34156,0,0,2.07656,-460.031,-557.14)">
                <path d="M560.406,511.025L358.55,511.025" style="fill:none;stroke:black;stroke-opacity:0.11;stroke-width:1px;"/>
            </g>
            <g transform="matrix(1.34156,0,0,2.07656,-460.031,-515.265)">
                <path d="M560.406,511.025L358.55,511.025" style="fill:none;stroke:black;stroke-opacity:0.11;stroke-width:1px;"/>
            </g>
            <g transform="matrix(1.34156,0,0,2.07656,-460.031,-473.39)">
                <path d="M560.406,511.025L358.55,511.025" style="fill:none;stroke:black;stroke-opacity:0.11;stroke-width:1px;"/>
            </g>
            <g transform="matrix(1.34156,0,0,2.07656,-460.031,-431.515)">
                <path d="M560.406,511.025L358.55,511.025" style="fill:none;stroke:black;stroke-opacity:0.11;stroke-width:1px;"/>
            </g>
            <g transform="matrix(3.42611e-17,-0.866073,2.5244,2.39261e-16,-1160.1,958.909)">
                <path d="M358.55,490.859L596.851,490.859" style="fill:none;stroke:black;stroke-opacity:0.11;stroke-width:0.73px;"/>
            </g>
            <g transform="matrix(3.42611e-17,-0.866073,2.5244,2.39261e-16,-1160.1,958.909)">
                <path d="M596.851,511.025L358.55,511.025" style="fill:none;stroke:black;stroke-opacity:0.11;stroke-width:0.73px;"/>
            </g>
            <g transform="matrix(3.42611e-17,-0.866073,2.5244,2.39261e-16,-1109.19,958.909)">
                <path d="M596.851,511.025L358.55,511.025" style="fill:none;stroke:black;stroke-opacity:0.11;stroke-width:0.73px;"/>
            </g>
            <g transform="matrix(3.42611e-17,-0.866073,2.5244,2.39261e-16,-1058.29,958.909)">
                <path d="M596.851,511.025L358.55,511.025" style="fill:none;stroke:black;stroke-opacity:0.11;stroke-width:0.73px;"/>
            </g>
            <g transform="matrix(3.42611e-17,-0.866073,2.5244,2.39261e-16,-1007.38,958.909)">
                <path d="M596.851,511.025L358.55,511.025" style="fill:none;stroke:black;stroke-opacity:0.11;stroke-width:0.73px;"/>
            </g>
            <g transform="matrix(3.42611e-17,-0.866073,2.5244,2.39261e-16,-1261.91,958.909)">
                <path d="M596.851,511.025L358.55,511.025" style="fill:none;stroke:black;stroke-opacity:0.11;stroke-width:0.73px;"/>
            </g>
            <g transform="matrix(1.34156,0,0,2.07656,-471.082,-555.379)">
                <path d="M366.552,530.308L410.048,529.994C440.022,529.994 441.583,570.673 454.145,570.673C466.706,570.673 471.844,529.994 498.989,529.994L568.644,530.222" style="fill:none;stroke:rgb(211,86,136);stroke-width:1px;"/>
            </g>
            <g transform="matrix(0.948629,1.46835,-0.948629,1.46835,560.387,-407.527)">
                <rect x="67.724" y="575.153" width="5.955" height="5.955" style="fill:rgb(49,14,10);"/>
            </g>
            <g transform="matrix(1.24875e-16,3.15667,-1.34156,1.27153e-16,781.245,262.813)">
                <path d="M89.453,520.548L91.273,523.434L87.632,523.434L89.453,520.548Z" style="fill:rgb(211,86,136);"/>
            </g>
            <g transform="matrix(0.948629,1.46835,-0.948629,1.46835,560.387,-407.527)">
                <rect x="67.724" y="575.153" width="5.955" height="5.955" style="fill:rgb(49,14,10);"/>
            </g>
            <g transform="matrix(0.948629,1.46835,-0.948629,1.46835,593.178,-364.875)">
                <rect x="67.724" y="575.153" width="5.955" height="5.955" style="fill:rgb(18,49,10);"/>
            </g>
            <g transform="matrix(1.24875e-16,3.15667,-1.34156,1.27153e-16,781.245,262.813)">
                <path d="M89.453,520.548L91.273,523.434L87.632,523.434L89.453,520.548Z" style="fill:rgb(211,86,136);"/>
            </g>
            <g transform="matrix(0.948629,1.46835,-0.948629,1.46835,560.387,-407.527)">
                <rect x="67.724" y="575.153" width="5.955" height="5.955" style="fill:rgb(49,14,10);"/>
            </g>
            <g transform="matrix(0.948629,1.46835,-0.948629,1.46835,679.707,-407.527)">
                <rect x="67.724" y="575.153" width="5.955" height="5.955" style="fill:rgb(49,14,10);"/>
            </g>
            <g transform="matrix(1.24875e-16,3.15667,-1.34156,1.27153e-16,781.245,262.813)">
                <path d="M89.453,520.548L91.273,523.434L87.632,523.434L89.453,520.548Z" style="fill:rgb(211,86,136);"/>
            </g>
            <g transform="matrix(1.24875e-16,3.15667,-1.34156,1.27153e-16,900.565,262.813)">
                <path d="M89.453,520.548L91.273,523.434L87.632,523.434L89.453,520.548Z" style="fill:rgb(211,86,136);"/>
            </g>
            <g transform="matrix(0.948629,1.46835,-0.948629,1.46835,560.387,-407.527)">
                <rect x="67.724" y="575.153" width="5.955" height="5.955" style="fill:rgb(49,14,10);"/>
            </g>
            <g transform="matrix(0.948629,1.46835,-0.948629,1.46835,679.707,-407.527)">
                <rect x="67.724" y="575.153" width="5.955" height="5.955" style="fill:rgb(49,14,10);"/>
            </g>
            <g transform="matrix(1.24875e-16,3.15667,-1.34156,1.27153e-16,781.245,262.813)">
                <path d="M89.453,520.548L91.273,523.434L87.632,523.434L89.453,520.548Z" style="fill:rgb(211,86,136);"/>
            </g>
            <g transform="matrix(1.24875e-16,3.15667,-1.34156,1.27153e-16,900.565,262.813)">
                <path d="M89.453,520.548L91.273,523.434L87.632,523.434L89.453,520.548Z" style="fill:rgb(211,86,136);"/>
            </g>
            <g transform="matrix(0.948629,1.46835,-0.948629,1.46835,679.707,-407.527)">
                <rect x="67.724" y="575.153" width="5.955" height="5.955" style="fill:rgb(49,14,10);"/>
            </g>
            <g transform="matrix(1.24875e-16,3.15667,-1.34156,1.27153e-16,900.565,262.813)">
                <path d="M89.453,520.548L91.273,523.434L87.632,523.434L89.453,520.548Z" style="fill:rgb(211,86,136);"/>
            </g>
            <g transform="matrix(0.948629,1.46835,-0.948629,1.46835,679.707,-407.527)">
                <rect x="67.724" y="575.153" width="5.955" height="5.955" style="fill:rgb(49,14,10);"/>
            </g>
            <g transform="matrix(1.24875e-16,3.15667,-1.34156,1.27153e-16,900.565,262.813)">
                <path d="M89.453,520.548L91.273,523.434L87.632,523.434L89.453,520.548Z" style="fill:rgb(211,86,136);"/>
            </g>
            <g transform="matrix(1.34156,0,0,2.07656,-471.082,-555.379)">
                <path d="M366.787,550.361L434.315,550.361C434.315,532.157 443.681,489.353 464.76,489.353C489.915,489.353 495.896,570.673 554.485,570.673L568.644,570.673" style="fill:none;stroke:rgb(140,211,86);stroke-width:1px;"/>
            </g>
            <g transform="matrix(1.20326,-0.00197488,-0.00127587,2.07654,-408.797,-554.49)">
                <path d="M409.8,530.013L445.458,530.342" style="fill:none;stroke:rgb(49,14,10);stroke-width:1.05px;"/>
            </g>
            <g transform="matrix(1.34156,0,0,2.07656,-471.082,-555.379)">
                <path d="M434.315,550.361L434.315,521.085" style="fill:none;stroke:rgb(18,49,10);stroke-width:1px;"/>
            </g>
            <g transform="matrix(1.34156,0,0,2.07656,-471.082,-555.379)">
                <path d="M438.649,490.011L491.027,490.011" style="fill:none;stroke:rgb(18,49,10);stroke-width:1px;"/>
            </g>
            <g transform="matrix(1.34156,0,0,2.07656,-492.109,-555.379)">
                <path d="M529.889,570.673L570.159,570.673" style="fill:none;stroke:rgb(18,49,10);stroke-width:1px;"/>
            </g>
            <g transform="matrix(0.942681,0,0,1.45914,-222.466,-251.431)">
                <rect x="433.263" y="487.243" width="3.608" height="3.608" style="fill:rgb(140,211,86);stroke:rgb(18,49,10);stroke-width:1.42px;"/>
            </g>
            <g transform="matrix(0.942681,0,0,1.45914,-222.466,-251.431)">
                <rect x="433.263" y="487.243" width="3.608" height="3.608" style="fill:rgb(140,211,86);stroke:rgb(18,49,10);stroke-width:1.42px;"/>
            </g>
            <g transform="matrix(0.942681,0,0,1.45914,-292.735,-251.431)">
                <rect x="433.263" y="487.243" width="3.608" height="3.608" style="fill:rgb(140,211,86);stroke:rgb(18,49,10);stroke-width:1.42px;"/>
            </g>
            <g transform="matrix(0.942681,0,0,1.45914,-298.549,-186.904)">
                <rect x="433.263" y="487.243" width="3.608" height="3.608" style="fill:rgb(140,211,86);stroke:rgb(18,49,10);stroke-width:1.42px;"/>
            </g>
            <g transform="matrix(0.942681,0,0,1.45914,-257.109,-167.681)">
                <rect x="433.263" y="487.243" width="3.608" height="3.608" style="fill:rgb(211,86,136);stroke:rgb(49,14,10);stroke-width:1.42px;"/>
            </g>
            <g transform="matrix(0.942681,0,0,1.45914,-281.9,-167.681)">
                <rect x="433.263" y="487.243" width="3.608" height="3.608" style="fill:rgb(211,86,136);stroke:rgb(49,14,10);stroke-width:1.42px;"/>
            </g>
            <g transform="matrix(0.934188,0,0,1.446,-187.808,-77.3853)">
                <rect x="433.263" y="487.243" width="3.608" height="3.608" style="fill:rgb(140,211,86);stroke:rgb(18,49,10);stroke-width:1.44px;"/>
            </g>
            <g transform="matrix(1.24875e-16,3.15667,-1.34156,1.27153e-16,814.036,305.465)">
                <path d="M89.453,520.548L91.273,523.434L87.632,523.434L89.453,520.548Z" style="fill:rgb(140,211,86);"/>
            </g>
            <g transform="matrix(0.948629,1.46835,-0.948629,1.46835,593.178,-364.875)">
                <rect x="67.724" y="575.153" width="5.955" height="5.955" style="fill:rgb(18,49,10);"/>
            </g>
            <g transform="matrix(0.948629,1.46835,-0.948629,1.46835,633.787,-490.554)">
                <rect x="67.724" y="575.153" width="5.955" height="5.955" style="fill:rgb(18,49,10);"/>
            </g>
            <g transform="matrix(1.24875e-16,3.15667,-1.34156,1.27153e-16,814.036,305.465)">
                <path d="M89.453,520.548L91.273,523.434L87.632,523.434L89.453,520.548Z" style="fill:rgb(140,211,86);"/>
            </g>
            <g transform="matrix(1.24875e-16,3.15667,-1.34156,1.27153e-16,854.645,179.786)">
                <path d="M89.453,520.548L91.273,523.434L87.632,523.434L89.453,520.548Z" style="fill:rgb(140,211,86);"/>
            </g>
            <g transform="matrix(0.948629,1.46835,-0.948629,1.46835,633.787,-490.554)">
                <rect x="67.724" y="575.153" width="5.955" height="5.955" style="fill:rgb(18,49,10);"/>
            </g>
            <g transform="matrix(0.948629,1.46835,-0.948629,1.46835,754.159,-323.054)">
                <rect x="67.724" y="575.153" width="5.955" height="5.955" style="fill:rgb(18,49,10);"/>
            </g>
            <g transform="matrix(1.24875e-16,3.15667,-1.34156,1.27153e-16,854.645,179.786)">
                <path d="M89.453,520.548L91.273,523.434L87.632,523.434L89.453,520.548Z" style="fill:rgb(140,211,86);"/>
            </g>
            <g transform="matrix(1.34156,0,0,2.07656,-471.082,-555.379)">
                <path d="M438.649,490.011L491.027,490.011" style="fill:none;stroke:rgb(18,49,10);stroke-width:1px;"/>
            </g>
            <g transform="matrix(0.942681,0,0,1.45914,-222.466,-251.431)">
                <rect x="433.263" y="487.243" width="3.608" height="3.608" style="fill:rgb(140,211,86);stroke:rgb(18,49,10);stroke-width:1.42px;"/>
            </g>
            <g transform="matrix(0.942681,0,0,1.45914,-222.466,-251.431)">
                <rect x="433.263" y="487.243" width="3.608" height="3.608" style="fill:rgb(140,211,86);stroke:rgb(18,49,10);stroke-width:1.42px;"/>
            </g>
            <g transform="matrix(0.942681,0,0,1.45914,-292.735,-251.431)">
                <rect x="433.263" y="487.243" width="3.608" height="3.608" style="fill:rgb(140,211,86);stroke:rgb(18,49,10);stroke-width:1.42px;"/>
            </g>
            <g transform="matrix(1.34156,0,0,2.07656,-471.082,-555.379)">
                <path d="M366.787,480.627C370.789,493.954 377.264,510.176 417.559,510.176L485.938,510.176C499.285,510.176 500.122,490.011 543.023,490.011L568.644,490.011" style="fill:none;stroke:rgb(86,150,211);stroke-width:1px;"/>
            </g>
            <g transform="matrix(0.942681,0,0,1.45914,-354.308,-209.556)">
                <rect x="433.263" y="487.243" width="3.608" height="3.608" style="fill:rgb(86,150,211);stroke:rgb(10,25,49);stroke-width:1.42px;"/>
            </g>
            <g transform="matrix(1.34156,0,0,2.07656,-471.082,-555.379)">
                <path d="M417.559,510.176L394.02,510.176" style="fill:none;stroke:rgb(10,25,49);stroke-width:1px;"/>
            </g>
            <g transform="matrix(0.942681,0,0,1.45914,-354.308,-209.556)">
                <rect x="433.263" y="487.243" width="3.608" height="3.608" style="fill:rgb(86,150,211);stroke:rgb(10,25,49);stroke-width:1.42px;"/>
            </g>
            <g transform="matrix(-0.931107,0,0,1.45914,607.035,-209.556)">
                <rect x="433.263" y="487.243" width="3.608" height="3.608" style="fill:rgb(86,150,211);stroke:rgb(10,25,49);stroke-width:1.43px;"/>
            </g>
            <g transform="matrix(1.34156,0,0,2.07656,-471.082,-555.379)">
                <path d="M466.543,530.342L497.197,530.177" style="fill:none;stroke:rgb(49,14,10);stroke-width:1px;"/>
            </g>
            <g transform="matrix(1.34156,0,0,2.07656,-471.082,-555.379)">
                <path d="M417.559,510.176L394.02,510.176" style="fill:none;stroke:rgb(10,25,49);stroke-width:1px;"/>
            </g>
            <g transform="matrix(-0.825271,-3.78296e-15,2.47436e-15,2.07656,525.435,-555.379)">
                <path d="M417.559,510.176L394.02,510.176" style="fill:none;stroke:rgb(10,25,49);stroke-width:1.2px;"/>
            </g>
            <g transform="matrix(-0.931107,0,0,1.45914,621.75,-251.431)">
                <rect x="433.263" y="487.243" width="3.608" height="3.608" style="fill:rgb(86,150,211);stroke:rgb(10,25,49);stroke-width:1.43px;"/>
            </g>
            <g transform="matrix(-1.55046,5.02994e-15,-4.60685e-15,2.07656,865.746,-597.254)">
                <path d="M417.559,510.176L394.02,510.176" style="fill:none;stroke:rgb(10,25,49);stroke-width:0.93px;"/>
            </g>
            <g transform="matrix(0.942681,0,0,1.45914,-271.919,-83.9311)">
                <rect x="433.263" y="487.243" width="3.608" height="3.608" style="fill:rgb(211,86,136);stroke:rgb(49,14,10);stroke-width:1.42px;"/>
            </g>
            <g transform="matrix(0.948629,1.46835,-0.948629,1.46835,633.787,-490.554)">
                <rect x="67.724" y="575.153" width="5.955" height="5.955" style="fill:rgb(18,49,10);"/>
            </g>
            <g transform="matrix(1.24875e-16,3.15667,-1.34156,1.27153e-16,854.645,179.786)">
                <path d="M89.453,520.548L91.273,523.434L87.632,523.434L89.453,520.548Z" style="fill:rgb(140,211,86);"/>
            </g>
            <g transform="matrix(0.948629,1.46835,-0.948629,1.46835,633.787,-490.554)">
                <rect x="67.724" y="575.153" width="5.955" height="5.955" style="fill:rgb(18,49,10);"/>
            </g>
            <g transform="matrix(1.24875e-16,3.15667,-1.34156,1.27153e-16,854.645,179.786)">
                <path d="M89.453,520.548L91.273,523.434L87.632,523.434L89.453,520.548Z" style="fill:rgb(140,211,86);"/>
            </g>
            <g transform="matrix(1.24875e-16,3.15667,-1.34156,1.27153e-16,975.017,347.286)">
                <path d="M89.453,520.548L91.273,523.434L87.632,523.434L89.453,520.548Z" style="fill:rgb(140,211,86);"/>
            </g>
            <g transform="matrix(0.948629,1.46835,-0.948629,1.46835,570.463,-448.679)">
                <rect x="67.724" y="575.153" width="5.955" height="5.955" style="fill:rgb(10,25,49);"/>
            </g>
            <g transform="matrix(1.24875e-16,3.15667,-1.34156,1.27153e-16,791.322,221.661)">
                <path d="M89.453,520.548L91.273,523.434L87.632,523.434L89.453,520.548Z" style="fill:rgb(86,150,211);"/>
            </g>
            <g transform="matrix(0.948629,1.46835,-0.948629,1.46835,570.463,-448.679)">
                <rect x="67.724" y="575.153" width="5.955" height="5.955" style="fill:rgb(10,25,49);"/>
            </g>
            <g transform="matrix(0.948629,1.46835,-0.948629,1.46835,662.198,-448.679)">
                <rect x="67.724" y="575.153" width="5.955" height="5.955" style="fill:rgb(10,25,49);"/>
            </g>
            <g transform="matrix(1.24875e-16,3.15667,-1.34156,1.27153e-16,791.322,221.661)">
                <path d="M89.453,520.548L91.273,523.434L87.632,523.434L89.453,520.548Z" style="fill:rgb(86,150,211);"/>
            </g>
            <g transform="matrix(1.24875e-16,3.15667,-1.34156,1.27153e-16,883.056,221.661)">
                <path d="M89.453,520.548L91.273,523.434L87.632,523.434L89.453,520.548Z" style="fill:rgb(86,150,211);"/>
            </g>
            <g transform="matrix(0.948629,1.46835,-0.948629,1.46835,662.198,-448.679)">
                <rect x="67.724" y="575.153" width="5.955" height="5.955" style="fill:rgb(10,25,49);"/>
            </g>
            <g transform="matrix(0.948629,1.46835,-0.948629,1.46835,739.061,-490.554)">
                <rect x="67.724" y="575.153" width="5.955" height="5.955" style="fill:rgb(10,25,49);"/>
            </g>
            <g transform="matrix(1.24875e-16,3.15667,-1.34156,1.27153e-16,883.056,221.661)">
                <path d="M89.453,520.548L91.273,523.434L87.632,523.434L89.453,520.548Z" style="fill:rgb(86,150,211);"/>
            </g>
            <g transform="matrix(1.24875e-16,3.15667,-1.34156,1.27153e-16,959.919,179.786)">
                <path d="M89.453,520.548L91.273,523.434L87.632,523.434L89.453,520.548Z" style="fill:rgb(86,150,211);"/>
            </g>
        </g>
    </g>
</svg>
