<?xml version="1.0" encoding="UTF-8" standalone="no"?>
<svg width="100%" height="100%" viewBox="0 0 268 177" version="1.1" xmlns="http://www.w3.org/2000/svg" xmlns:xlink="http://www.w3.org/1999/xlink" xml:space="preserve" style="fill-rule:evenodd;clip-rule:evenodd;stroke-linejoin:round;stroke-miterlimit:2;">
    <g transform="matrix(0.975775,0,0,0.98112,7.28264,3.73476)">
        <rect x="-7.463" y="-3.807" width="274.366" height="179.807" style="fill:none;"/>
        <clipPath id="_clip1">
            <rect x="-7.463" y="-3.807" width="274.366" height="179.807"/>
        </clipPath>
        <g clip-path="url(#_clip1)">
            <g transform="matrix(1.22611,0,0,1.21943,-45.3841,-14.1884)">
                <path d="M34.057,156.126L31.323,156.126L31.323,16.43C31.323,12.337 34.64,9.019 38.733,9.019L246.998,9.019C251.09,9.019 254.408,12.337 254.408,16.43L254.408,156.126L251.787,156.126L251.787,16.581C251.787,13.861 249.583,11.656 246.863,11.656L155.659,11.656C155.433,11.656 155.216,11.746 155.056,11.906C154.896,12.066 154.807,12.283 154.807,12.509L154.807,14.903C154.807,15.129 154.717,15.346 154.557,15.506C154.397,15.666 154.18,15.756 153.954,15.756L132.278,15.756C132.052,15.756 131.836,15.666 131.676,15.506C131.516,15.346 131.426,15.129 131.426,14.903L131.426,12.509C131.426,12.283 131.336,12.066 131.176,11.906C131.016,11.746 130.8,11.656 130.574,11.656L38.982,11.656C36.262,11.656 34.057,13.861 34.057,16.581L34.057,156.126Z"/>
            </g>
        </g>
    </g>
</svg>
